
<svg xmlns="http://www.w3.org/2000/svg" width="576" height="72" viewBox="0 0 576 72">
  <metadata><?xpacket begin="﻿" id="W5M0MpCehiHzreSzNTczkc9d"?>
<x:xmpmeta xmlns:x="adobe:ns:meta/" x:xmptk="Adobe XMP Core 5.6-c142 79.160924, 2017/07/13-01:06:39        ">
   <rdf:RDF xmlns:rdf="http://www.w3.org/1999/02/22-rdf-syntax-ns#">
      <rdf:Description rdf:about=""/>
   </rdf:RDF>
</x:xmpmeta>
                                                                                                    
                                                                                                    
                                                                                                    
                                                                                                    
                                                                                                    
                                                                                                    
                                                                                                    
                                                                                                    
                                                                                                    
                                                                                                    
                                                                                                    
                                                                                                    
                                                                                                    
                                                                                                    
                                                                                                    
                                                                                                    
                                                                                                    
                                                                                                    
                                                                                                    
                                                                                                    
                           
<?xpacket end="w"?></metadata>
<defs>
    <style>
      .cls-1 {
        fill-rule: evenodd;
      }
    </style>
  </defs>
  <path id="comment.sh" class="cls-1" d="M26,62.9c-9.8,0-16.951-7.05-16.951-17.3C9.051,35.3,16.2,28.248,26,28.248a16.742,16.742,0,0,1,13.8,6.7,1.323,1.323,0,0,0,2,.35l4.45-2.6a1.321,1.321,0,0,0,.45-2.05A24.66,24.66,0,0,0,25.852,19.9C11.051,19.9.25,31,.25,45.6c0,14.551,10.8,25.7,25.6,25.7A24.581,24.581,0,0,0,46.7,60.5a1.272,1.272,0,0,0-.45-2L41.8,55.9a1.292,1.292,0,0,0-2,.35A16.7,16.7,0,0,1,26,62.9Zm57.55,8.4A25.7,25.7,0,1,0,57.8,45.6,25.5,25.5,0,0,0,83.552,71.3Zm0-8.4a16.991,16.991,0,0,1-17-17.3,16.98,16.98,0,1,1,33.952,0A16.98,16.98,0,0,1,83.552,62.9ZM125,70h5.451a1.417,1.417,0,0,0,1.5-1.5v-33c0.55-3.45,3.05-7.8,8.3-7.8,4.5,0,6.651,2.4,6.651,9.2V68.5a1.417,1.417,0,0,0,1.5,1.5h5.3a1.417,1.417,0,0,0,1.5-1.5v-33c0.45-3.45,2.95-7.8,8.351-7.8,4.45,0,6.6,2.4,6.6,9.2V68.5a1.417,1.417,0,0,0,1.5,1.5h5.45a1.417,1.417,0,0,0,1.5-1.5V36.9c0-12.7-4.65-17-12.65-17-5.5,0-9.4,2.5-11.5,7.1H153.9c-1.85-4.85-5.3-7.1-10.451-7.1-5.45,0-9.2,2.65-11,7.1H131.8l-0.25-4.5a1.444,1.444,0,0,0-1.5-1.5H125a1.417,1.417,0,0,0-1.5,1.5v46A1.417,1.417,0,0,0,125,70Zm71.1,0h5.45a1.417,1.417,0,0,0,1.5-1.5v-33c0.551-3.45,3.051-7.8,8.3-7.8,4.5,0,6.65,2.4,6.65,9.2V68.5a1.417,1.417,0,0,0,1.5,1.5h5.3a1.417,1.417,0,0,0,1.5-1.5v-33c0.45-3.45,2.95-7.8,8.35-7.8,4.451,0,6.6,2.4,6.6,9.2V68.5a1.417,1.417,0,0,0,1.5,1.5h5.45a1.417,1.417,0,0,0,1.5-1.5V36.9c0-12.7-4.65-17-12.65-17-5.5,0-9.4,2.5-11.5,7.1H225c-1.85-4.85-5.3-7.1-10.451-7.1-5.45,0-9.2,2.65-11,7.1H202.9l-0.25-4.5a1.444,1.444,0,0,0-1.5-1.5H196.1a1.417,1.417,0,0,0-1.5,1.5v46A1.417,1.417,0,0,0,196.1,70Zm92.551-50.1c-14.551,0-24.7,11.3-24.7,25.7S274.1,71.3,289.5,71.3a25.541,25.541,0,0,0,18.651-7.5,1.429,1.429,0,0,0-.05-2.3l-2.6-2.6c-0.8-.75-1.4-0.45-2.15.15a19.376,19.376,0,0,1-12.9,4.65c-9.8,0-16.551-5.85-17.7-14.351H309c2.651,0,3.051-1.7,3.051-5.25C312.053,31.248,303.252,19.9,288.651,19.9Zm0,7.8c8.7,0,14.9,6.15,15.5,14.751h-31.4C273.85,33.7,280.1,27.7,288.651,27.7ZM353.5,19.9a19.774,19.774,0,0,0-17.2,9.351h-1l-0.4-6.75a1.473,1.473,0,0,0-1.5-1.5h-5.6a1.417,1.417,0,0,0-1.5,1.5v46a1.417,1.417,0,0,0,1.5,1.5h6a1.417,1.417,0,0,0,1.5-1.5V39.1c0-2.05,4.8-10.951,15.2-10.951,7.551,0,11.851,4,11.851,12.551V68.5a1.417,1.417,0,0,0,1.5,1.5h6a1.417,1.417,0,0,0,1.5-1.5V39.7C371.351,26.6,364.3,19.9,353.5,19.9ZM433,62.1l-2.75-3.15a1.342,1.342,0,0,0-2.1-.1A15.155,15.155,0,0,1,418.1,62.6c-6.05,0-11.7-2.35-11.7-12.251v-21.6h20.8a1.417,1.417,0,0,0,1.5-1.5V22.5a1.417,1.417,0,0,0-1.5-1.5H406.4V8a1.417,1.417,0,0,0-1.5-1.5h-6A1.417,1.417,0,0,0,397.4,8V21H384.6a1.417,1.417,0,0,0-1.5,1.5v4.75a1.417,1.417,0,0,0,1.5,1.5h12.8V51c0,15.751,9.4,19.8,19.351,19.8,8.6,0,14.051-4.15,16.3-6.7A1.42,1.42,0,0,0,433,62.1Zm19.247,9.2a6.98,6.98,0,0,0,7.051-7.05,7.051,7.051,0,1,0-14.1,0A6.979,6.979,0,0,0,452.248,71.3ZM494.2,42.048c-7.851-1.05-12.851-2.25-12.851-7.4,0-4.9,4.55-7.15,12.151-7.15,7.15,0,12.7,2,13.5,7.651a1.253,1.253,0,0,0,1.45,1.15h5.8a1.258,1.258,0,0,0,1.4-1.5c-1.1-11.151-10.1-14.9-22.2-14.9-14.4,0-20.852,6.1-20.852,14.6,0,11.4,10.6,13.1,21.6,14.5,7.95,1,13.7,2.2,13.7,7.5,0,4.8-5,7.15-13.65,7.15-7.651,0-13.151-2-13.951-7.651a1.253,1.253,0,0,0-1.45-1.15h-5.8a1.291,1.291,0,0,0-1.45,1.5C472.746,67.5,481.647,71.3,494.3,71.3c15.4,0,22.451-6.1,22.451-14.8C516.749,44.9,505.4,43.5,494.2,42.048ZM557.548,19.9a19.773,19.773,0,0,0-17.2,9.351H539.5V1.5A1.417,1.417,0,0,0,538,0h-6a1.417,1.417,0,0,0-1.5,1.5v67A1.417,1.417,0,0,0,532,70h6a1.417,1.417,0,0,0,1.5-1.5V38.4a16.028,16.028,0,0,1,15.051-10.251c7.55,0,11.85,4,11.85,12.551V68.5a1.418,1.418,0,0,0,1.5,1.5h6a1.417,1.417,0,0,0,1.5-1.5V39.7C575.4,26.6,568.349,19.9,557.548,19.9Z"/>
</svg>
